<svg width="128" height="128" viewBox="0 0 32 32" xmlns="http://www.w3.org/2000/svg" shape-rendering="crispEdges">
  <!-- Bg Shadow -->
  <path d="M4 16 C4 8, 8 4, 16 4 C24 4, 28 8, 28 16 C28 24, 24 28, 16 28 C8 28, 4 24, 4 16 Z" transform="translate(2, 2)" fill="rgba(0,0,0,0.2)"/>
  <!-- Body -->
  <path d="M4 16 C4 8, 8 4, 16 4 C24 4, 28 8, 28 16 C28 24, 24 28, 16 28 C8 28, 4 24, 4 16 Z" fill="#BC8F8F" stroke="black" stroke-width="1"/>
  <!-- Texture Dots -->
  <circle cx="10" cy="8" r="0.5" fill="rgba(0,0,0,0.2)"/>
  <circle cx="24" cy="18" r="0.5" fill="rgba(0,0,0,0.2)"/>
  <circle cx="14" cy="24" r="0.5" fill="rgba(0,0,0,0.2)"/>
  <!-- Face -->
  <circle cx="13" cy="14" r="1.5" fill="black"/><circle cx="19" cy="14" r="1.5" fill="black"/><path d="M14 18 Q16 20 18 18" stroke="black" stroke-width="1.5" fill="none"/>
  <!-- Accessory -->
  
</svg>