<svg width="128" height="128" viewBox="0 0 32 32" xmlns="http://www.w3.org/2000/svg" shape-rendering="crispEdges">
  <!-- Bg Shadow -->
  <path d="M4 16 C4 8, 8 4, 16 4 C24 4, 28 8, 28 16 C28 24, 24 28, 16 28 C8 28, 4 24, 4 16 Z" transform="translate(2, 2)" fill="rgba(0,0,0,0.2)"/>
  <!-- Body -->
  <path d="M4 16 C4 8, 8 4, 16 4 C24 4, 28 8, 28 16 C28 24, 24 28, 16 28 C8 28, 4 24, 4 16 Z" fill="#ADD8E6"/>
  <!-- Face -->
  <line x1="10" y1="12" x2="14" y2="16" stroke="black" stroke-width="2"/><line x1="14" y1="12" x2="10" y2="16" stroke="black" stroke-width="2"/><line x1="18" y1="12" x2="22" y2="16" stroke="black" stroke-width="2"/><line x1="22" y1="12" x2="18" y2="16" stroke="black" stroke-width="2"/><path d="M12 22 Q16 18 20 22" stroke="black" stroke-width="2" fill="none"/>
  <!-- Accessory -->
  <path d="M10 8 L10 2 L13 6 L16 2 L19 6 L22 2 L22 8 Z" fill="gold"/>
</svg>