<svg width="128" height="128" viewBox="0 0 32 32" xmlns="http://www.w3.org/2000/svg" shape-rendering="crispEdges">
  <!-- Bg Shadow -->
  <path d="M4 16 C4 8, 8 4, 16 4 C24 4, 28 8, 28 16 C28 24, 24 28, 16 28 C8 28, 4 24, 4 16 Z" transform="translate(2, 2)" fill="rgba(0,0,0,0.2)"/>
  <!-- Body -->
  <path d="M4 16 C4 8, 8 4, 16 4 C24 4, 28 8, 28 16 C28 24, 24 28, 16 28 C8 28, 4 24, 4 16 Z" fill="#FFB7B2"/>
  <!-- Face -->
  <circle cx="12" cy="14" r="2" fill="black"/><circle cx="20" cy="14" r="2" fill="black"/><circle cx="16" cy="22" r="2" fill="black"/>
  <!-- Accessory -->
  <path d="M10 8 L10 2 L13 6 L16 2 L19 6 L22 2 L22 8 Z" fill="gold"/>
</svg>