<svg width="128" height="128" viewBox="0 0 32 32" xmlns="http://www.w3.org/2000/svg" shape-rendering="crispEdges">
  <!-- Bg Shadow -->
  <path d="M4 16 C4 8, 8 4, 16 4 C24 4, 28 8, 28 16 C28 24, 24 28, 16 28 C8 28, 4 24, 4 16 Z" transform="translate(2, 2)" fill="rgba(0,0,0,0.2)"/>
  <!-- Body -->
  <path d="M4 16 C4 8, 8 4, 16 4 C24 4, 28 8, 28 16 C28 24, 24 28, 16 28 C8 28, 4 24, 4 16 Z" fill="#808080" stroke="black" stroke-width="1"/>
  <!-- Texture Dots -->
  <circle cx="10" cy="8" r="0.5" fill="rgba(0,0,0,0.2)"/>
  <circle cx="24" cy="18" r="0.5" fill="rgba(0,0,0,0.2)"/>
  <circle cx="14" cy="24" r="0.5" fill="rgba(0,0,0,0.2)"/>
  <!-- Face -->
  <circle cx="10" cy="12" r="3" fill="white"/><circle cx="10" cy="12" r="1" fill="black"/><circle cx="22" cy="14" r="3" fill="white"/><circle cx="22" cy="14" r="1" fill="black"/><path d="M12 22 Q16 24 20 22" stroke="black" stroke-width="2" fill="none"/>
  <!-- Accessory -->
  <circle cx="26" cy="26" r="4" fill="#808080" stroke="black" stroke-width="1"/>
</svg>