<svg width="128" height="128" viewBox="0 0 32 32" xmlns="http://www.w3.org/2000/svg" shape-rendering="crispEdges">
  <!-- Bg Shadow -->
  <path d="M4 16 C4 8, 8 4, 16 4 C24 4, 28 8, 28 16 C28 24, 24 28, 16 28 C8 28, 4 24, 4 16 Z" transform="translate(2, 2)" fill="rgba(0,0,0,0.2)"/>
  <!-- Body -->
  <path d="M4 16 C4 8, 8 4, 16 4 C24 4, 28 8, 28 16 C28 24, 24 28, 16 28 C8 28, 4 24, 4 16 Z" fill="#C7CEEA"/>
  <!-- Face -->
  <line x1="10" y1="14" x2="14" y2="14" stroke="black" stroke-width="2"/><line x1="18" y1="14" x2="22" y2="14" stroke="black" stroke-width="2"/><circle cx="24" cy="10" r="1" fill="black"/><circle cx="26" cy="8" r="0.5" fill="black"/>
  <!-- Accessory -->
  
</svg>