<svg width="128" height="128" viewBox="0 0 32 32" xmlns="http://www.w3.org/2000/svg" shape-rendering="crispEdges">
  <!-- Bg Shadow -->
  <path d="M4 16 C4 8, 8 4, 16 4 C24 4, 28 8, 28 16 C28 24, 24 28, 16 28 C8 28, 4 24, 4 16 Z" transform="translate(2, 2)" fill="rgba(0,0,0,0.2)"/>
  <!-- Body -->
  <path d="M4 16 C4 8, 8 4, 16 4 C24 4, 28 8, 28 16 C28 24, 24 28, 16 28 C8 28, 4 24, 4 16 Z" fill="#B0C4DE" stroke="black" stroke-width="1"/>
  <!-- Texture Dots -->
  <circle cx="10" cy="8" r="0.5" fill="rgba(0,0,0,0.2)"/>
  <circle cx="24" cy="18" r="0.5" fill="rgba(0,0,0,0.2)"/>
  <circle cx="14" cy="24" r="0.5" fill="rgba(0,0,0,0.2)"/>
  <!-- Face -->
  <line x1="8" y1="10" x2="12" y2="12" stroke="black" stroke-width="2"/><line x1="24" y1="10" x2="20" y2="12" stroke="black" stroke-width="2"/><circle cx="10" cy="14" r="2" fill="black"/><circle cx="22" cy="14" r="2" fill="black"/><path d="M12 22 Q16 18 20 22" stroke="black" stroke-width="2" fill="none"/>
  <!-- Accessory -->
  <path d="M6 6 Q10 2 14 6 Q12 10 8 10 Z" fill="#8FBC8F" opacity="0.8"/>
</svg>